<svg xmlns="http://www.w3.org/2000/svg" width="42px" height="42px" viewBox="0 0 43 43" fill="#000">
	<path d="M18.939,11.879h-2.82v18.315h1.837c3.488,0,5.972-0.693,7.45-2.079 c1.479-1.385,2.218-3.711,2.218-6.977c0-3.315-0.668-5.688-2.004-7.117C24.283,12.593,22.057,11.879,18.939,11.879z"/><path d="M21.5,0.5c-11.598,0-21,9.402-21,21s9.402,21,21,21s21-9.401,21-21 S33.098,0.5,21.5,0.5z M28.941,29.117c-1.076,1.374-2.403,2.354-3.98,2.941c-1.577,0.588-3.677,0.882-6.3,0.882h-6.198V9.132h7.181 c7.917,0,11.876,3.811,11.876,11.431C31.521,24.089,30.66,26.94,28.941,29.117z"/>
</svg>