<svg version="1.1" xmlns="http://www.w3.org/2000/svg" width="51.023px" height="51.023px" viewBox="0 0 51.023 51.023">
<g>
	<path fill="#545454" d="M25.512,0C11.433,0,0,11.429,0,25.502c0,0.432,0.018,0.846,0.036,1.277
		C0.666,14.633,10.712,4.968,23.027,4.968c12.729,0,23.028,10.313,23.028,23.018c0,12.312-9.669,22.373-21.821,23.003
		c0.414,0.018,0.846,0.035,1.278,0.035c14.098,0,25.512-11.429,25.512-25.503C51.023,11.447,39.609,0,25.512,0z"/>
	<path fill="#4885ED" d="M30.192,46.974c7.58-2.934,12.964-10.294,12.964-18.915c0-0.343,0-0.686-0.018-1.008
		c-0.308,6.011-3.512,11.249-8.247,14.344V13.787H30.21v33.187"/>
	<path fill="#4885ED" d="M16.113,47.189C8.246,44.4,2.61,36.895,2.61,28.077c0-11.195,9.074-20.266,20.272-20.266
		c0.342,0,0.685,0,1.008,0.018C14.223,8.333,6.554,16.306,6.554,26.096c0,4.806,1.854,9.181,4.879,12.438V25.502h4.681V47.189"/>
	<path fill="#4885ED" d="M20.813,48.233V19.906h4.681V48.18c-0.864,0.107-1.729,0.161-2.629,0.161
		C22.181,48.341,21.497,48.305,20.813,48.233"/>
</g>
</svg>
