<svg version="1.1" xmlns="http://www.w3.org/2000/svg" width="95.706px" height="46.601px" viewBox="0 0 95.706 46.601">
<g>
	<path fill="#4885ED" d="M0,0h14.603c4.844,0,7.231,2.036,7.231,6.109v8.986c0,4.072-2.388,6.108-7.231,6.108H8.565v10.322H0V0z
		 M13.198,13.972v-6.81c0-0.702-0.42-1.053-1.263-1.053h-3.37v8.986h3.37C12.778,15.095,13.198,14.744,13.198,13.972z"/>
	<path fill="#4885ED" d="M45.775,31.525l-0.983-4.706h-7.583l-1.053,4.706h-8.425L35.806,0h10.461l8.074,31.525H45.775z
		 M38.543,20.711h4.914L41.071,9.338L38.543,20.711z"/>
	<path fill="#4885ED" d="M69.856,25.416h9.758v6.179H61.29V0h8.637v25.416H69.856z"/>
	<path fill="#4885ED" d="M86.564,0h8.637v31.525h-8.637V0z"/>
</g>
<text transform="matrix(1 0 0 1 52.9028 43.355)" fill="#545454" font-family="'Bahnschrift'" font-size="12">Análisis</text>
</svg>
