<?xml version="1.0" encoding="utf-8"?>
<!-- Generator: Adobe Illustrator 16.0.0, SVG Export Plug-In . SVG Version: 6.00 Build 0)  -->
<!DOCTYPE svg PUBLIC "-//W3C//DTD SVG 1.1//EN" "http://www.w3.org/Graphics/SVG/1.1/DTD/svg11.dtd">
<svg version="1.1" id="레이어_1" xmlns="http://www.w3.org/2000/svg" xmlns:xlink="http://www.w3.org/1999/xlink" x="0px"
	 y="0px" width="158.292px" height="51.023px" viewBox="0.069 0 158.292 51.023" enable-background="new 0.069 0 158.292 51.023"
	 xml:space="preserve">
<g>
	<path fill="#545454" d="M25.581,0C11.502,0,0.069,11.429,0.069,25.502c0,0.432,0.018,0.845,0.036,1.277
		C0.735,14.633,10.781,4.967,23.096,4.967c12.729,0,23.028,10.313,23.028,23.019c0,12.311-9.669,22.373-21.822,23.002
		c0.414,0.018,0.846,0.035,1.278,0.035c14.097,0,25.512-11.43,25.512-25.503C51.093,11.448,39.678,0,25.581,0z"/>
	<path d="M20.883,48.342"/>
	<path fill="#4885ED" d="M30.262,46.974c7.58-2.934,12.963-10.295,12.963-18.916c0-0.342,0-0.686-0.018-1.008
		c-0.307,6.012-3.511,11.25-8.247,14.344V13.787h-4.682v33.187"/>
	<path fill="#4885ED" d="M16.183,47.189C8.315,44.402,2.68,36.894,2.68,28.078c0-11.195,9.074-20.266,20.272-20.266
		c0.342,0,0.685,0,1.008,0.019C14.292,8.334,6.623,16.307,6.623,26.097c0,4.807,1.854,9.182,4.879,12.438V25.503h4.681V47.189"/>
	<path fill="#4885ED" d="M20.883,48.234V19.906h4.681v28.273c-0.864,0.107-1.729,0.162-2.629,0.162
		C22.251,48.342,21.566,48.304,20.883,48.234"/>
</g>
<g>
	<path fill="#4885ED" d="M62.655,3.835h14.603c4.844,0,7.23,2.036,7.23,6.109v8.985c0,4.072-2.387,6.108-7.23,6.108H71.22v10.323
		h-8.565V3.835z M75.853,17.806v-6.81c0-0.702-0.42-1.053-1.263-1.053h-3.37v8.985h3.37C75.433,18.929,75.853,18.579,75.853,17.806z
		"/>
	<path fill="#4885ED" d="M108.43,35.361l-0.982-4.707h-7.584l-1.053,4.707h-8.424l8.074-31.526h10.461l8.072,31.526H108.43z
		 M101.198,24.546h4.914l-2.387-11.374L101.198,24.546z"/>
	<path fill="#4885ED" d="M132.512,29.25h9.758v6.18h-18.324V3.835h8.635v25.417h-0.068V29.25z"/>
	<path fill="#4885ED" d="M149.219,3.835h8.637v31.526h-8.637V3.835z"/>
</g>
<text transform="matrix(1 0 0 1 115.5591 47.1892)" fill="#545454" font-family="'Bahnschrift'" font-size="12">Análisis</text>
</svg>
